<svg xmlns="http://www.w3.org/2000/svg" viewBox="0 0 280 380" width="280" height="380">
  <!-- Passport body -->
  <rect x="10" y="10" width="260" height="360" rx="12" ry="12" fill="#1a4a1a" />
  <rect x="18" y="18" width="244" height="344" rx="8" ry="8" fill="#1e5520" />
  <!-- Gold emblem circle -->
  <circle cx="140" cy="110" r="52" fill="none" stroke="#c9a227" stroke-width="2"/>
  <circle cx="140" cy="110" r="44" fill="#1e5520"/>
  <!-- Coat of arms / lion simplified -->
  <ellipse cx="140" cy="100" rx="22" ry="28" fill="#c9a227"/>
  <ellipse cx="140" cy="96" rx="14" ry="10" fill="#1e5520"/>
  <rect x="128" y="106" width="24" height="20" rx="3" fill="#c9a227"/>
  <!-- Stars around circle -->
  <text x="140" y="72" font-family="Arial" font-size="11" fill="#c9a227" text-anchor="middle">  </text>
  <text x="140" y="156" font-family="Arial" font-size="11" fill="#c9a227" text-anchor="middle">  </text>
  <!-- Title -->
  <text x="140" y="186" font-family="Arial, sans-serif" font-size="13" font-weight="bold" fill="#c9a227" text-anchor="middle"> # * /</text>
  <text x="140" y="208" font-family="Arial, sans-serif" font-size="19" font-weight="bold" fill="#c9a227" text-anchor="middle">! "</text>
  <text x="140" y="228" font-family="Arial, sans-serif" font-size="12" fill="#a0c8a0" text-anchor="middle">PASSPORT</text>
  <!-- Horizontal divider -->
  <line x1="36" y1="242" x2="244" y2="242" stroke="#c9a227" stroke-width="1"/>
  <!-- Data fields -->
  <rect x="36" y="256" width="80" height="60" rx="4" fill="#2a6a2a"/>
  <circle cx="76" cy="276" r="14" fill="#4a8a4a"/>
  <rect x="44" y="294" width="64" height="16" rx="3" fill="#4a8a4a"/>
  <rect x="130" y="256" width="114" height="12" rx="2" fill="#2a6a2a"/>
  <rect x="130" y="276" width="90" height="12" rx="2" fill="#2a6a2a"/>
  <rect x="130" y="296" width="100" height="12" rx="2" fill="#2a6a2a"/>
  <!-- Machine readable zone -->
  <rect x="18" y="336" width="244" height="18" rx="3" fill="#164016"/>
  <text x="140" y="349" font-family="Courier New, monospace" font-size="8" fill="#5a9a5a" text-anchor="middle">P&lt;BGR&lt;&lt;&lt;&lt;&lt;&lt;&lt;&lt;&lt;&lt;&lt;&lt;&lt;&lt;&lt;&lt;&lt;&lt;&lt;&lt;&lt;&lt;&lt;&lt;&lt;</text>
</svg>
